<svg width="159" height="61" viewBox="0 0 159 61" fill="none" xmlns="http://www.w3.org/2000/svg">
<g clip-path="url(#clip0_15_11)">
<path fill-rule="evenodd" clip-rule="evenodd" d="M55.2438 19.918C48.8211 10.5883 42.7801 9.51471 40.2392 10.5432C36.2739 12.1482 36.3155 15.0787 27.912 18.5795C19.4371 21.9106 17.3609 19.8037 13.3956 21.4088C10.8546 22.4373 7.33981 27.3788 9.48961 38.4381C10.718 44.7508 13.0482 53.974 16.6381 53.7414C21.1054 53.4517 21.0708 49.6684 24.2247 45.183C27.4283 40.6338 29.251 39.1308 35.4908 36.6051C41.7305 34.0794 44.1032 33.8843 49.644 34.8939C55.1028 35.8907 57.7978 38.5995 61.1739 35.7145C63.8868 33.3959 58.9123 25.2454 55.2438 19.918V19.918ZM23.2349 34.4218C21.95 34.9419 20.5344 35.0046 19.2995 34.5961C18.0647 34.1876 17.1116 33.3415 16.6501 32.2437C16.1885 31.146 16.2563 29.8866 16.8385 28.7426C17.4206 27.5986 18.4695 26.6638 19.7544 26.1437C21.0392 25.6236 22.4548 25.5609 23.6897 25.9694C24.9246 26.3779 25.8776 27.2241 26.3391 28.3218C26.8007 29.4196 26.7329 30.679 26.1508 31.8229C25.5686 32.9669 24.5197 33.9018 23.2349 34.4218ZM40.1907 27.5586C39.5483 27.8186 38.8405 27.8499 38.2231 27.6457C37.6056 27.4415 37.1291 27.0184 36.8983 26.4695C36.6676 25.9206 36.7014 25.2909 36.9925 24.7189C37.2836 24.147 37.808 23.6795 38.4505 23.4195C39.0929 23.1595 39.8007 23.1281 40.4181 23.3324C41.0356 23.5366 41.5121 23.9597 41.7429 24.5086C41.9736 25.0574 41.9397 25.6871 41.6487 26.2591C41.3576 26.8311 40.8331 27.2985 40.1907 27.5586ZM43.295 21.4586C42.6526 21.7186 41.9448 21.7499 41.3273 21.5457C40.7099 21.3415 40.2334 20.9184 40.0026 20.3695C39.7718 19.8206 39.8057 19.1909 40.0968 18.6189C40.3879 18.047 40.9123 17.5795 41.5548 17.3195C42.1972 17.0595 42.905 17.0281 43.5224 17.2324C44.1398 17.4366 44.6164 17.8597 44.8471 18.4086C45.0779 18.9574 45.044 19.5871 44.7529 20.1591C44.4619 20.7311 43.9374 21.1985 43.295 21.4586Z" fill="#393939"/>
</g>
<path d="M35.016 21.264C36.3387 21.264 37.7253 21.328 39.176 21.456L38.728 26.128C37.768 26.0213 37.064 25.968 36.616 25.968C36.1893 25.968 35.976 26.16 35.976 26.544V27.12H38.6L38.344 31.088H36.04V42H30.696V31.088H29.288V27.12H30.696V25.52C30.696 22.6827 32.136 21.264 35.016 21.264ZM44.647 33.392V42H39.335V26.672H44.007L44.327 27.6H44.455C44.9457 27.0453 45.4363 26.6933 45.927 26.544C46.439 26.3733 47.2603 26.288 48.391 26.288L48.167 31.408H46.695C45.863 31.408 45.3083 31.536 45.031 31.792C44.775 32.048 44.647 32.5813 44.647 33.392ZM55.7663 30.864C55.2116 30.864 54.8489 31.056 54.6783 31.44C54.5076 31.8027 54.4223 32.368 54.4223 33.136H57.2063V32.368C57.2063 31.3653 56.7263 30.864 55.7663 30.864ZM55.8943 26.288C58.0916 26.288 59.6596 26.8213 60.5983 27.888C61.5583 28.9333 62.0383 30.4373 62.0383 32.4C62.0383 32.656 61.9636 33.808 61.8143 35.856H54.5183C54.5183 37.456 55.2543 38.256 56.7263 38.256C57.4303 38.256 58.8063 38.0107 60.8543 37.52L61.3023 41.488C59.5103 42.0427 57.7183 42.32 55.9263 42.32C53.7289 42.32 52.0436 41.6053 50.8703 40.176C49.6969 38.7253 49.1103 36.7627 49.1103 34.288C49.1103 28.9547 51.3716 26.288 55.8943 26.288ZM69.9225 30.864C69.3678 30.864 69.0052 31.056 68.8345 31.44C68.6638 31.8027 68.5785 32.368 68.5785 33.136H71.3625V32.368C71.3625 31.3653 70.8825 30.864 69.9225 30.864ZM70.0505 26.288C72.2478 26.288 73.8158 26.8213 74.7545 27.888C75.7145 28.9333 76.1945 30.4373 76.1945 32.4C76.1945 32.656 76.1198 33.808 75.9705 35.856H68.6745C68.6745 37.456 69.4105 38.256 70.8825 38.256C71.5865 38.256 72.9625 38.0107 75.0105 37.52L75.4585 41.488C73.6665 42.0427 71.8745 42.32 70.0825 42.32C67.8852 42.32 66.1998 41.6053 65.0265 40.176C63.8532 38.7253 63.2665 36.7627 63.2665 34.288C63.2665 28.9547 65.5278 26.288 70.0505 26.288ZM82.3188 43.408H85.6148C85.9988 43.408 86.1908 43.2373 86.1908 42.896V42.768C86.1908 42.448 85.9988 42.288 85.6148 42.288H82.3188C81.9774 42.288 81.8068 42.4587 81.8068 42.8V42.928C81.8068 43.248 81.9774 43.408 82.3188 43.408ZM83.5988 26.288H91.1508V29.872H88.8468V30.032C89.5294 30.6293 89.8708 31.408 89.8708 32.368C89.8708 35.7813 87.9401 37.488 84.0788 37.488H82.5428C82.1588 37.488 81.9668 37.6693 81.9668 38.032C81.9668 38.3733 82.1481 38.544 82.5108 38.544H86.8628C89.3161 38.544 90.5428 39.6107 90.5428 41.744C90.5428 43.4933 89.9561 44.752 88.7828 45.52C87.6094 46.3093 85.9881 46.704 83.9188 46.704C81.8494 46.704 80.2814 46.48 79.2148 46.032C78.1694 45.6053 77.6468 44.7947 77.6468 43.6C77.6468 42.9387 78.0628 42.384 78.8948 41.936V41.808C77.8494 41.232 77.3268 40.4 77.3268 39.312C77.3268 38.032 78.1481 37.0613 79.7908 36.4C79.0228 35.8453 78.4468 35.2053 78.0628 34.48C77.7001 33.7333 77.5188 32.752 77.5188 31.536C77.5188 29.8507 78.0628 28.56 79.1508 27.664C80.2601 26.7467 81.7428 26.288 83.5988 26.288ZM85.0068 32.432C85.0068 31.7493 84.9214 31.2587 84.7508 30.96C84.6014 30.64 84.3134 30.48 83.8868 30.48C83.4601 30.48 83.1614 30.64 82.9908 30.96C82.8414 31.2587 82.7668 31.728 82.7668 32.368C82.7668 33.6693 83.1508 34.32 83.9188 34.32C84.6441 34.32 85.0068 33.6907 85.0068 32.432ZM103.637 30.672L103.477 37.296C103.477 37.7013 103.573 37.9787 103.765 38.128C103.978 38.256 104.33 38.32 104.821 38.32L104.341 42.192C103.104 42.2773 102.421 42.32 102.293 42.32C100.714 42.32 99.7117 41.776 99.285 40.688H99.125C98.3357 41.776 97.1197 42.32 95.477 42.32C94.2183 42.32 93.2477 41.9147 92.565 41.104C91.9037 40.2933 91.573 39.184 91.573 37.776C91.573 36.0053 92.117 34.7787 93.205 34.096C94.3143 33.4133 96.053 32.9653 98.421 32.752V31.984C98.421 31.3867 98.1223 31.088 97.525 31.088C96.501 31.088 94.901 31.3973 92.725 32.016L91.925 27.344C94.6557 26.64 96.9277 26.288 98.741 26.288C100.554 26.288 101.824 26.64 102.549 27.344C103.274 28.048 103.637 29.1573 103.637 30.672ZM97.461 38.576C98.2503 38.576 98.645 38.16 98.645 37.328V35.76C97.8557 35.8667 97.2903 36.0373 96.949 36.272C96.629 36.4853 96.469 36.8587 96.469 37.392C96.469 38.1813 96.7997 38.576 97.461 38.576ZM119.015 27.792C120.188 26.7893 121.479 26.288 122.887 26.288C124.295 26.288 125.276 26.6187 125.831 27.28C126.407 27.92 126.695 28.8907 126.695 30.192V42H121.255V32.016C121.255 31.4827 121.02 31.216 120.551 31.216C119.953 31.216 119.452 31.3653 119.047 31.664V42H113.607V32.016C113.607 31.4827 113.372 31.216 112.903 31.216C112.305 31.216 111.804 31.3653 111.399 31.664V42H106.023V26.672H110.919L111.239 27.792H111.367C112.54 26.7893 113.927 26.288 115.527 26.288C117.148 26.288 118.204 26.8853 118.695 28.08L119.015 27.792ZM134.024 42H128.744V26.832H134.024V42ZM129.16 25.616C128.712 25.232 128.488 24.6133 128.488 23.76C128.488 22.9067 128.712 22.2773 129.16 21.872C129.608 21.4667 130.344 21.264 131.368 21.264C132.392 21.264 133.128 21.4667 133.576 21.872C134.024 22.2773 134.248 22.9067 134.248 23.76C134.248 24.592 134.024 25.2107 133.576 25.616C133.128 26 132.392 26.192 131.368 26.192C130.344 26.192 129.608 26 129.16 25.616ZM141.398 27.792C142.571 26.7893 143.862 26.288 145.27 26.288C146.678 26.288 147.659 26.6187 148.214 27.28C148.79 27.92 149.078 28.8907 149.078 30.192V42H143.638V32.016C143.638 31.4827 143.403 31.216 142.934 31.216C142.336 31.216 141.835 31.3653 141.43 31.664V42H136.054V26.672H140.95L141.27 27.792H141.398Z" fill="#8C8C8C"/>
<defs>
<clipPath id="clip0_15_11">
<rect width="52.2635" height="44.9002" fill="white" transform="matrix(0.926943 -0.375202 0.387581 0.921835 0 19.6093)"/>
</clipPath>
</defs>
</svg>
